<svg xmlns="http://www.w3.org/2000/svg" fill="none" viewBox="0 0 128 128">
    <path d="M 49 85.5 C 40.3 85.9 31.8 88.2 23.9 92.4 l 21.3 -65.7 c 0.6 -2 1.7 -3.2 3 -3.2 h 25.6 c 1.3 0 2.4 1.2 3 3.2 l 21.3 65.7 s -10.2 -7 -25.1 -7 L 63.6 52.5 c -0.4 -1.7 -1.4 -2.8 -2.6 -2.8 c -1.1 0 -2.2 1.1 -2.6 2.7 L 49 85.5 Z m -1 28.2 Z m -3.7 -20.2 c -1.8 6.6 -0.5 15.8 3.7 20.2 C 48.1 113.5 48.2 113.2 48.2 113 C 48.7 110.3 50.8 108.4 53.2 108.5 c 2.5 0.1 3.8 1.5 4.1 4.7 c 0.2 1.1 0.2 2.3 0.2 3.5 v 0.4 c 0 2.7 0.6 5.2 1.9 7.4 C 60.7 126.7 62.5 128.4 64.5 129.4 v -0.3 l -0.2 -0.3 c -1.6 -5.6 -0.4 -9.5 3.9 -12.8 l 1.3 -1 C 70.5 114.3 71.4 113.6 72.4 112.8 C 75.7 110.2 77.9 106 78.4 101.4 c 0.3 -2 0.1 -4 -0.5 -6 l -0.7 0.6 l -1.4 1 C 69.5 100.2 62.6 101.2 56 99.7 c -4.4 -0.7 -8.5 -2 -11.6 -6.2 Z" />
    <style>
        path { fill: #000; }
        @media (prefers-color-scheme: dark) {
            path { fill: #FFF; }
        }
    </style>
</svg>
